<svg xmlns="http://www.w3.org/2000/svg" version="1.1" xmlns:xlink="http://www.w3.org/1999/xlink" xmlns:svgjs="http://svgjs.dev/svgjs" width="1440" height="560" preserveAspectRatio="none" viewBox="0 0 1440 560"><g mask="url(&quot;#SvgjsMask3687&quot;)" fill="none"><rect width="1440" height="560" x="0" y="0" fill="url(&quot;#SvgjsLinearGradient3688&quot;)"></rect><path d="M-58.35 410.36L-58.35 410.36" stroke="rgba(0, 0, 0, 1)" stroke-width="1.5"></path><path d="M-58.35 410.36L-84.77 531.7" stroke="rgba(0, 0, 0, 1)" stroke-width="1.5"></path><path d="M-58.35 410.36L92.39 379.64" stroke="rgba(0, 0, 0, 1)" stroke-width="1.5"></path><path d="M-58.35 410.36L49.33 552.67" stroke="rgba(0, 0, 0, 1)" stroke-width="1.5"></path><path d="M-84.77 531.7L-84.77 531.7" stroke="rgba(0, 0, 0, 1)" stroke-width="1.5"></path><path d="M-84.77 531.7L49.33 552.67" stroke="rgba(0, 0, 0, 1)" stroke-width="1.5"></path><path d="M-84.77 531.7L-62.85 678.17" stroke="rgba(0, 0, 0, 1)" stroke-width="1.5"></path><path d="M-84.77 531.7L60.33 690.05" stroke="rgba(0, 0, 0, 1)" stroke-width="1.5"></path><path d="M-84.77 531.7L92.39 379.64" stroke="rgba(0, 0, 0, 1)" stroke-width="1.5"></path><path d="M-62.85 678.17L-62.85 678.17" stroke="rgba(0, 0, 0, 1)" stroke-width="1.5"></path><path d="M-62.85 678.17L60.33 690.05" stroke="rgba(0, 0, 0, 1)" stroke-width="1.5"></path><path d="M92.39 379.64L92.39 379.64" stroke="rgba(0, 0, 0, 1)" stroke-width="1.5"></path><path d="M92.39 379.64L196.84 363.21" stroke="rgba(0, 0, 0, 1)" stroke-width="1.5"></path><path d="M92.39 379.64L49.33 552.67" stroke="rgba(0, 0, 0, 1)" stroke-width="1.5"></path><path d="M92.39 379.64L202.53 530.21" stroke="rgba(0, 0, 0, 1)" stroke-width="1.5"></path><path d="M92.39 379.64L212.45 656.5" stroke="rgba(0, 0, 0, 1)" stroke-width="1.5"></path><path d="M49.33 552.67L49.33 552.67" stroke="rgba(0, 0, 0, 1)" stroke-width="1.5"></path><path d="M60.33 690.05L60.33 690.05" stroke="rgba(0, 0, 0, 1)" stroke-width="1.5"></path><path d="M60.33 690.05L49.33 552.67" stroke="rgba(0, 0, 0, 1)" stroke-width="1.5"></path><path d="M60.33 690.05L212.45 656.5" stroke="rgba(0, 0, 0, 1)" stroke-width="1.5"></path><path d="M60.33 690.05L202.53 530.21" stroke="rgba(0, 0, 0, 1)" stroke-width="1.5"></path><path d="M196.84 363.21L196.84 363.21" stroke="rgba(0, 0, 0, 1)" stroke-width="1.5"></path><path d="M196.84 363.21L202.53 530.21" stroke="rgba(0, 0, 0, 1)" stroke-width="1.5"></path><path d="M196.84 363.21L407.3 345.91" stroke="rgba(0, 0, 0, 1)" stroke-width="1.5"></path><path d="M196.84 363.21L49.33 552.67" stroke="rgba(0, 0, 0, 1)" stroke-width="1.5"></path><path d="M196.84 363.21L339.27 557.87" stroke="rgba(0, 0, 0, 1)" stroke-width="1.5"></path><path d="M196.84 363.21L-58.35 410.36" stroke="rgba(0, 0, 0, 1)" stroke-width="1.5"></path><path d="M202.53 530.21L202.53 530.21" stroke="rgba(0, 0, 0, 1)" stroke-width="1.5"></path><path d="M202.53 530.21L212.45 656.5" stroke="rgba(0, 0, 0, 1)" stroke-width="1.5"></path><path d="M202.53 530.21L339.27 557.87" stroke="rgba(0, 0, 0, 1)" stroke-width="1.5"></path><path d="M212.45 656.5L212.45 656.5" stroke="rgba(0, 0, 0, 1)" stroke-width="1.5"></path><path d="M212.45 656.5L339.27 557.87" stroke="rgba(0, 0, 0, 1)" stroke-width="1.5"></path><path d="M212.45 656.5L405 660.56" stroke="rgba(0, 0, 0, 1)" stroke-width="1.5"></path><path d="M212.45 656.5L49.33 552.67" stroke="rgba(0, 0, 0, 1)" stroke-width="1.5"></path><path d="M407.3 345.91L407.3 345.91" stroke="rgba(0, 0, 0, 1)" stroke-width="1.5"></path><path d="M407.3 345.91L511.88 374.4" stroke="rgba(0, 0, 0, 1)" stroke-width="1.5"></path><path d="M407.3 345.91L550.33 497.98" stroke="rgba(0, 0, 0, 1)" stroke-width="1.5"></path><path d="M407.3 345.91L339.27 557.87" stroke="rgba(0, 0, 0, 1)" stroke-width="1.5"></path><path d="M339.27 557.87L339.27 557.87" stroke="rgba(0, 0, 0, 1)" stroke-width="1.5"></path><path d="M339.27 557.87L405 660.56" stroke="rgba(0, 0, 0, 1)" stroke-width="1.5"></path><path d="M339.27 557.87L489.85 668.28" stroke="rgba(0, 0, 0, 1)" stroke-width="1.5"></path><path d="M405 660.56L405 660.56" stroke="rgba(0, 0, 0, 1)" stroke-width="1.5"></path><path d="M405 660.56L489.85 668.28" stroke="rgba(0, 0, 0, 1)" stroke-width="1.5"></path><path d="M405 660.56L550.33 497.98" stroke="rgba(0, 0, 0, 1)" stroke-width="1.5"></path><path d="M405 660.56L202.53 530.21" stroke="rgba(0, 0, 0, 1)" stroke-width="1.5"></path><path d="M511.88 374.4L511.88 374.4" stroke="rgba(0, 0, 0, 1)" stroke-width="1.5"></path><path d="M511.88 374.4L550.33 497.98" stroke="rgba(0, 0, 0, 1)" stroke-width="1.5"></path><path d="M550.33 497.98L550.33 497.98" stroke="rgba(0, 0, 0, 1)" stroke-width="1.5"></path><path d="M550.33 497.98L489.85 668.28" stroke="rgba(0, 0, 0, 1)" stroke-width="1.5"></path><path d="M550.33 497.98L704.82 379.31" stroke="rgba(0, 0, 0, 1)" stroke-width="1.5"></path><path d="M489.85 668.28L489.85 668.28" stroke="rgba(0, 0, 0, 1)" stroke-width="1.5"></path><path d="M489.85 668.28L706.57 686.23" stroke="rgba(0, 0, 0, 1)" stroke-width="1.5"></path><path d="M489.85 668.28L212.45 656.5" stroke="rgba(0, 0, 0, 1)" stroke-width="1.5"></path><path d="M704.82 379.31L704.82 379.31" stroke="rgba(0, 0, 0, 1)" stroke-width="1.5"></path><path d="M704.82 379.31L799.59 232.54" stroke="rgba(0, 0, 0, 1)" stroke-width="1.5"></path><path d="M704.82 379.31L511.88 374.4" stroke="rgba(0, 0, 0, 1)" stroke-width="1.5"></path><path d="M704.82 379.31L854.65 544.4" stroke="rgba(0, 0, 0, 1)" stroke-width="1.5"></path><path d="M704.82 379.31L938.13 206.19" stroke="rgba(0, 0, 0, 1)" stroke-width="1.5"></path><path d="M704.82 379.31L407.3 345.91" stroke="rgba(0, 0, 0, 1)" stroke-width="1.5"></path><path d="M706.57 686.23L706.57 686.23" stroke="rgba(0, 0, 0, 1)" stroke-width="1.5"></path><path d="M706.57 686.23L859.78 642.61" stroke="rgba(0, 0, 0, 1)" stroke-width="1.5"></path><path d="M706.57 686.23L854.65 544.4" stroke="rgba(0, 0, 0, 1)" stroke-width="1.5"></path><path d="M706.57 686.23L550.33 497.98" stroke="rgba(0, 0, 0, 1)" stroke-width="1.5"></path><path d="M706.57 686.23L969.85 701.4" stroke="rgba(0, 0, 0, 1)" stroke-width="1.5"></path><path d="M706.57 686.23L405 660.56" stroke="rgba(0, 0, 0, 1)" stroke-width="1.5"></path><path d="M799.59 232.54L799.59 232.54" stroke="rgba(0, 0, 0, 1)" stroke-width="1.5"></path><path d="M799.59 232.54L938.13 206.19" stroke="rgba(0, 0, 0, 1)" stroke-width="1.5"></path><path d="M799.59 232.54L1011.61 339.9" stroke="rgba(0, 0, 0, 1)" stroke-width="1.5"></path><path d="M799.59 232.54L1005.5 42.89" stroke="rgba(0, 0, 0, 1)" stroke-width="1.5"></path><path d="M799.59 232.54L1097.36 246.55" stroke="rgba(0, 0, 0, 1)" stroke-width="1.5"></path><path d="M854.65 544.4L854.65 544.4" stroke="rgba(0, 0, 0, 1)" stroke-width="1.5"></path><path d="M854.65 544.4L859.78 642.61" stroke="rgba(0, 0, 0, 1)" stroke-width="1.5"></path><path d="M854.65 544.4L969.85 701.4" stroke="rgba(0, 0, 0, 1)" stroke-width="1.5"></path><path d="M859.78 642.61L859.78 642.61" stroke="rgba(0, 0, 0, 1)" stroke-width="1.5"></path><path d="M859.78 642.61L969.85 701.4" stroke="rgba(0, 0, 0, 1)" stroke-width="1.5"></path><path d="M859.78 642.61L1090.63 517.18" stroke="rgba(0, 0, 0, 1)" stroke-width="1.5"></path><path d="M946.89 -99.87L946.89 -99.87" stroke="rgba(0, 0, 0, 1)" stroke-width="1.5"></path><path d="M946.89 -99.87L1005.5 42.89" stroke="rgba(0, 0, 0, 1)" stroke-width="1.5"></path><path d="M946.89 -99.87L1107.59 -42.61" stroke="rgba(0, 0, 0, 1)" stroke-width="1.5"></path><path d="M946.89 -99.87L1153.04 61.15" stroke="rgba(0, 0, 0, 1)" stroke-width="1.5"></path><path d="M1005.5 42.89L1005.5 42.89" stroke="rgba(0, 0, 0, 1)" stroke-width="1.5"></path><path d="M1005.5 42.89L1107.59 -42.61" stroke="rgba(0, 0, 0, 1)" stroke-width="1.5"></path><path d="M1005.5 42.89L1153.04 61.15" stroke="rgba(0, 0, 0, 1)" stroke-width="1.5"></path><path d="M1005.5 42.89L938.13 206.19" stroke="rgba(0, 0, 0, 1)" stroke-width="1.5"></path><path d="M1005.5 42.89L1097.36 246.55" stroke="rgba(0, 0, 0, 1)" stroke-width="1.5"></path><path d="M938.13 206.19L938.13 206.19" stroke="rgba(0, 0, 0, 1)" stroke-width="1.5"></path><path d="M938.13 206.19L1011.61 339.9" stroke="rgba(0, 0, 0, 1)" stroke-width="1.5"></path><path d="M1011.61 339.9L1011.61 339.9" stroke="rgba(0, 0, 0, 1)" stroke-width="1.5"></path><path d="M1011.61 339.9L1097.36 246.55" stroke="rgba(0, 0, 0, 1)" stroke-width="1.5"></path><path d="M1011.61 339.9L1153.78 366.88" stroke="rgba(0, 0, 0, 1)" stroke-width="1.5"></path><path d="M1011.61 339.9L1090.63 517.18" stroke="rgba(0, 0, 0, 1)" stroke-width="1.5"></path><path d="M1011.61 339.9L854.65 544.4" stroke="rgba(0, 0, 0, 1)" stroke-width="1.5"></path><path d="M969.85 701.4L969.85 701.4" stroke="rgba(0, 0, 0, 1)" stroke-width="1.5"></path><path d="M969.85 701.4L1137.81 677.29" stroke="rgba(0, 0, 0, 1)" stroke-width="1.5"></path><path d="M1107.59 -42.61L1107.59 -42.61" stroke="rgba(0, 0, 0, 1)" stroke-width="1.5"></path><path d="M1107.59 -42.61L1153.04 61.15" stroke="rgba(0, 0, 0, 1)" stroke-width="1.5"></path><path d="M1107.59 -42.61L1274.15 -60.79" stroke="rgba(0, 0, 0, 1)" stroke-width="1.5"></path><path d="M1153.04 61.15L1153.04 61.15" stroke="rgba(0, 0, 0, 1)" stroke-width="1.5"></path><path d="M1153.04 61.15L1261.5 39.45" stroke="rgba(0, 0, 0, 1)" stroke-width="1.5"></path><path d="M1153.04 61.15L1274.15 -60.79" stroke="rgba(0, 0, 0, 1)" stroke-width="1.5"></path><path d="M1153.04 61.15L1097.36 246.55" stroke="rgba(0, 0, 0, 1)" stroke-width="1.5"></path><path d="M1097.36 246.55L1097.36 246.55" stroke="rgba(0, 0, 0, 1)" stroke-width="1.5"></path><path d="M1097.36 246.55L1153.78 366.88" stroke="rgba(0, 0, 0, 1)" stroke-width="1.5"></path><path d="M1097.36 246.55L938.13 206.19" stroke="rgba(0, 0, 0, 1)" stroke-width="1.5"></path><path d="M1153.78 366.88L1153.78 366.88" stroke="rgba(0, 0, 0, 1)" stroke-width="1.5"></path><path d="M1153.78 366.88L1294.83 345.44" stroke="rgba(0, 0, 0, 1)" stroke-width="1.5"></path><path d="M1153.78 366.88L1090.63 517.18" stroke="rgba(0, 0, 0, 1)" stroke-width="1.5"></path><path d="M1153.78 366.88L1270.83 248.46" stroke="rgba(0, 0, 0, 1)" stroke-width="1.5"></path><path d="M1153.78 366.88L1395.25 380" stroke="rgba(0, 0, 0, 1)" stroke-width="1.5"></path><path d="M1090.63 517.18L1090.63 517.18" stroke="rgba(0, 0, 0, 1)" stroke-width="1.5"></path><path d="M1090.63 517.18L1137.81 677.29" stroke="rgba(0, 0, 0, 1)" stroke-width="1.5"></path><path d="M1137.81 677.29L1137.81 677.29" stroke="rgba(0, 0, 0, 1)" stroke-width="1.5"></path><path d="M1137.81 677.29L1261.12 687.33" stroke="rgba(0, 0, 0, 1)" stroke-width="1.5"></path><path d="M1137.81 677.29L1304.04 559.55" stroke="rgba(0, 0, 0, 1)" stroke-width="1.5"></path><path d="M1137.81 677.29L859.78 642.61" stroke="rgba(0, 0, 0, 1)" stroke-width="1.5"></path><path d="M1137.81 677.29L1153.78 366.88" stroke="rgba(0, 0, 0, 1)" stroke-width="1.5"></path><path d="M1274.15 -60.79L1274.15 -60.79" stroke="rgba(0, 0, 0, 1)" stroke-width="1.5"></path><path d="M1274.15 -60.79L1261.5 39.45" stroke="rgba(0, 0, 0, 1)" stroke-width="1.5"></path><path d="M1274.15 -60.79L1425.49 -70.96" stroke="rgba(0, 0, 0, 1)" stroke-width="1.5"></path><path d="M1261.5 39.45L1261.5 39.45" stroke="rgba(0, 0, 0, 1)" stroke-width="1.5"></path><path d="M1270.83 248.46L1270.83 248.46" stroke="rgba(0, 0, 0, 1)" stroke-width="1.5"></path><path d="M1270.83 248.46L1294.83 345.44" stroke="rgba(0, 0, 0, 1)" stroke-width="1.5"></path><path d="M1294.83 345.44L1294.83 345.44" stroke="rgba(0, 0, 0, 1)" stroke-width="1.5"></path><path d="M1294.83 345.44L1395.25 380" stroke="rgba(0, 0, 0, 1)" stroke-width="1.5"></path><path d="M1294.83 345.44L1446.19 220.8" stroke="rgba(0, 0, 0, 1)" stroke-width="1.5"></path><path d="M1294.83 345.44L1402.52 513.93" stroke="rgba(0, 0, 0, 1)" stroke-width="1.5"></path><path d="M1294.83 345.44L1304.04 559.55" stroke="rgba(0, 0, 0, 1)" stroke-width="1.5"></path><path d="M1304.04 559.55L1304.04 559.55" stroke="rgba(0, 0, 0, 1)" stroke-width="1.5"></path><path d="M1304.04 559.55L1402.52 513.93" stroke="rgba(0, 0, 0, 1)" stroke-width="1.5"></path><path d="M1304.04 559.55L1261.12 687.33" stroke="rgba(0, 0, 0, 1)" stroke-width="1.5"></path><path d="M1261.12 687.33L1261.12 687.33" stroke="rgba(0, 0, 0, 1)" stroke-width="1.5"></path><path d="M1261.12 687.33L1458.72 689.83" stroke="rgba(0, 0, 0, 1)" stroke-width="1.5"></path><path d="M1261.12 687.33L1402.52 513.93" stroke="rgba(0, 0, 0, 1)" stroke-width="1.5"></path><path d="M1425.49 -70.96L1425.49 -70.96" stroke="rgba(0, 0, 0, 1)" stroke-width="1.5"></path><path d="M1425.49 -70.96L1453.3 49.94" stroke="rgba(0, 0, 0, 1)" stroke-width="1.5"></path><path d="M1425.49 -70.96L1261.5 39.45" stroke="rgba(0, 0, 0, 1)" stroke-width="1.5"></path><path d="M1453.3 49.94L1453.3 49.94" stroke="rgba(0, 0, 0, 1)" stroke-width="1.5"></path><path d="M1446.19 220.8L1446.19 220.8" stroke="rgba(0, 0, 0, 1)" stroke-width="1.5"></path><path d="M1446.19 220.8L1594.67 239.92" stroke="rgba(0, 0, 0, 1)" stroke-width="1.5"></path><path d="M1446.19 220.8L1395.25 380" stroke="rgba(0, 0, 0, 1)" stroke-width="1.5"></path><path d="M1446.19 220.8L1453.3 49.94" stroke="rgba(0, 0, 0, 1)" stroke-width="1.5"></path><path d="M1446.19 220.8L1270.83 248.46" stroke="rgba(0, 0, 0, 1)" stroke-width="1.5"></path><path d="M1446.19 220.8L1596.47 74.66" stroke="rgba(0, 0, 0, 1)" stroke-width="1.5"></path><path d="M1395.25 380L1395.25 380" stroke="rgba(0, 0, 0, 1)" stroke-width="1.5"></path><path d="M1395.25 380L1402.52 513.93" stroke="rgba(0, 0, 0, 1)" stroke-width="1.5"></path><path d="M1395.25 380L1270.83 248.46" stroke="rgba(0, 0, 0, 1)" stroke-width="1.5"></path><path d="M1395.25 380L1582.06 403.54" stroke="rgba(0, 0, 0, 1)" stroke-width="1.5"></path><path d="M1402.52 513.93L1402.52 513.93" stroke="rgba(0, 0, 0, 1)" stroke-width="1.5"></path><path d="M1402.52 513.93L1568.44 517.31" stroke="rgba(0, 0, 0, 1)" stroke-width="1.5"></path><path d="M1402.52 513.93L1458.72 689.83" stroke="rgba(0, 0, 0, 1)" stroke-width="1.5"></path><path d="M1402.52 513.93L1582.06 403.54" stroke="rgba(0, 0, 0, 1)" stroke-width="1.5"></path><path d="M1458.72 689.83L1458.72 689.83" stroke="rgba(0, 0, 0, 1)" stroke-width="1.5"></path><path d="M1458.72 689.83L1574.57 697.9" stroke="rgba(0, 0, 0, 1)" stroke-width="1.5"></path><path d="M1596.47 74.66L1596.47 74.66" stroke="rgba(0, 0, 0, 1)" stroke-width="1.5"></path><path d="M1596.47 74.66L1453.3 49.94" stroke="rgba(0, 0, 0, 1)" stroke-width="1.5"></path><path d="M1596.47 74.66L1594.67 239.92" stroke="rgba(0, 0, 0, 1)" stroke-width="1.5"></path><path d="M1594.67 239.92L1594.67 239.92" stroke="rgba(0, 0, 0, 1)" stroke-width="1.5"></path><path d="M1594.67 239.92L1582.06 403.54" stroke="rgba(0, 0, 0, 1)" stroke-width="1.5"></path><path d="M1582.06 403.54L1582.06 403.54" stroke="rgba(0, 0, 0, 1)" stroke-width="1.5"></path><path d="M1582.06 403.54L1568.44 517.31" stroke="rgba(0, 0, 0, 1)" stroke-width="1.5"></path><path d="M1568.44 517.31L1568.44 517.31" stroke="rgba(0, 0, 0, 1)" stroke-width="1.5"></path><path d="M1568.44 517.31L1574.57 697.9" stroke="rgba(0, 0, 0, 1)" stroke-width="1.5"></path><path d="M1568.44 517.31L1458.72 689.83" stroke="rgba(0, 0, 0, 1)" stroke-width="1.5"></path><path d="M1574.57 697.9L1574.57 697.9" stroke="rgba(0, 0, 0, 1)" stroke-width="1.5"></path><path d="M1574.57 697.9L1402.52 513.93" stroke="rgba(0, 0, 0, 1)" stroke-width="1.5"></path><path d="M1574.57 697.9L1582.06 403.54" stroke="rgba(0, 0, 0, 1)" stroke-width="1.5"></path><path d="M1574.57 697.9L1304.04 559.55" stroke="rgba(0, 0, 0, 1)" stroke-width="1.5"></path><path d="M1574.57 697.9L1261.12 687.33" stroke="rgba(0, 0, 0, 1)" stroke-width="1.5"></path><circle r="5" cx="-58.35" cy="410.36" fill="rgba(0, 0, 0, 1)"></circle><circle r="5" cx="-84.77" cy="531.7" fill="rgba(0, 0, 0, 1)"></circle><circle r="5" cx="-62.85" cy="678.17" fill="rgba(0, 0, 0, 1)"></circle><circle r="5" cx="92.39" cy="379.64" fill="rgba(0, 0, 0, 1)"></circle><circle r="5" cx="49.33" cy="552.67" fill="rgba(0, 0, 0, 1)"></circle><circle r="5" cx="60.33" cy="690.05" fill="rgba(0, 0, 0, 1)"></circle><circle r="5" cx="196.84" cy="363.21" fill="rgba(0, 0, 0, 1)"></circle><circle r="5" cx="202.53" cy="530.21" fill="rgba(0, 0, 0, 1)"></circle><circle r="5" cx="212.45" cy="656.5" fill="rgba(0, 0, 0, 1)"></circle><circle r="5" cx="407.3" cy="345.91" fill="rgba(0, 0, 0, 1)"></circle><circle r="5" cx="339.27" cy="557.87" fill="rgba(0, 0, 0, 1)"></circle><circle r="5" cx="405" cy="660.56" fill="rgba(0, 0, 0, 1)"></circle><circle r="5" cx="511.88" cy="374.4" fill="rgba(0, 0, 0, 1)"></circle><circle r="5" cx="550.33" cy="497.98" fill="rgba(0, 0, 0, 1)"></circle><circle r="5" cx="489.85" cy="668.28" fill="rgba(0, 0, 0, 1)"></circle><circle r="5" cx="704.82" cy="379.31" fill="rgba(0, 0, 0, 1)"></circle><circle r="5" cx="706.57" cy="686.23" fill="rgba(0, 0, 0, 1)"></circle><circle r="5" cx="799.59" cy="232.54" fill="rgba(0, 0, 0, 1)"></circle><circle r="5" cx="854.65" cy="544.4" fill="rgba(0, 0, 0, 1)"></circle><circle r="5" cx="859.78" cy="642.61" fill="rgba(0, 0, 0, 1)"></circle><circle r="5" cx="946.89" cy="-99.87" fill="rgba(0, 0, 0, 1)"></circle><circle r="5" cx="1005.5" cy="42.89" fill="rgba(0, 0, 0, 1)"></circle><circle r="5" cx="938.13" cy="206.19" fill="rgba(0, 0, 0, 1)"></circle><circle r="5" cx="1011.61" cy="339.9" fill="rgba(0, 0, 0, 1)"></circle><circle r="5" cx="969.85" cy="701.4" fill="rgba(0, 0, 0, 1)"></circle><circle r="5" cx="1107.59" cy="-42.61" fill="rgba(0, 0, 0, 1)"></circle><circle r="5" cx="1153.04" cy="61.15" fill="rgba(0, 0, 0, 1)"></circle><circle r="5" cx="1097.36" cy="246.55" fill="rgba(0, 0, 0, 1)"></circle><circle r="5" cx="1153.78" cy="366.88" fill="rgba(0, 0, 0, 1)"></circle><circle r="5" cx="1090.63" cy="517.18" fill="rgba(0, 0, 0, 1)"></circle><circle r="5" cx="1137.81" cy="677.29" fill="rgba(0, 0, 0, 1)"></circle><circle r="5" cx="1274.15" cy="-60.79" fill="rgba(0, 0, 0, 1)"></circle><circle r="5" cx="1261.5" cy="39.45" fill="rgba(0, 0, 0, 1)"></circle><circle r="5" cx="1270.83" cy="248.46" fill="rgba(0, 0, 0, 1)"></circle><circle r="5" cx="1294.83" cy="345.44" fill="rgba(0, 0, 0, 1)"></circle><circle r="5" cx="1304.04" cy="559.55" fill="rgba(0, 0, 0, 1)"></circle><circle r="5" cx="1261.12" cy="687.33" fill="rgba(0, 0, 0, 1)"></circle><circle r="5" cx="1425.49" cy="-70.96" fill="rgba(0, 0, 0, 1)"></circle><circle r="5" cx="1453.3" cy="49.94" fill="rgba(0, 0, 0, 1)"></circle><circle r="5" cx="1446.19" cy="220.8" fill="rgba(0, 0, 0, 1)"></circle><circle r="5" cx="1395.25" cy="380" fill="rgba(0, 0, 0, 1)"></circle><circle r="5" cx="1402.52" cy="513.93" fill="rgba(0, 0, 0, 1)"></circle><circle r="5" cx="1458.72" cy="689.83" fill="rgba(0, 0, 0, 1)"></circle><circle r="5" cx="1596.47" cy="74.66" fill="rgba(0, 0, 0, 1)"></circle><circle r="5" cx="1594.67" cy="239.92" fill="rgba(0, 0, 0, 1)"></circle><circle r="5" cx="1582.06" cy="403.54" fill="rgba(0, 0, 0, 1)"></circle><circle r="5" cx="1568.44" cy="517.31" fill="rgba(0, 0, 0, 1)"></circle><circle r="5" cx="1574.57" cy="697.9" fill="rgba(0, 0, 0, 1)"></circle><path d="M355.68 510.32L355.68 510.32" stroke="hsl(0, 0%, 0%)" stroke-width="1.5"></path><path d="M355.68 510.32L248.51 554.73" stroke="hsl(0, 0%, 0%)" stroke-width="1.5"></path><path d="M355.68 510.32L499.35 517.93" stroke="hsl(0, 0%, 0%)" stroke-width="1.5"></path><path d="M355.68 510.32L386.17 681.69" stroke="hsl(0, 0%, 0%)" stroke-width="1.5"></path><path d="M355.68 510.32L207.34 649.31" stroke="hsl(0, 0%, 0%)" stroke-width="1.5"></path><path d="M355.68 510.32L545.69 686.6" stroke="hsl(0, 0%, 0%)" stroke-width="1.5"></path><path d="M386.17 681.69L386.17 681.69" stroke="hsl(0, 0%, 0%)" stroke-width="1.5"></path><path d="M386.17 681.69L545.69 686.6" stroke="hsl(0, 0%, 0%)" stroke-width="1.5"></path><path d="M386.17 681.69L207.34 649.31" stroke="hsl(0, 0%, 0%)" stroke-width="1.5"></path><path d="M640.38 682.1L640.38 682.1" stroke="hsl(0, 0%, 0%)" stroke-width="1.5"></path><path d="M640.38 682.1L545.69 686.6" stroke="hsl(0, 0%, 0%)" stroke-width="1.5"></path><path d="M640.38 682.1L647.5 529.16" stroke="hsl(0, 0%, 0%)" stroke-width="1.5"></path><path d="M640.38 682.1L797.73 658.92" stroke="hsl(0, 0%, 0%)" stroke-width="1.5"></path><path d="M797.73 658.92L797.73 658.92" stroke="hsl(0, 0%, 0%)" stroke-width="1.5"></path><path d="M797.73 658.92L814.6 494.76" stroke="hsl(0, 0%, 0%)" stroke-width="1.5"></path><path d="M797.73 658.92L974.86 667.24" stroke="hsl(0, 0%, 0%)" stroke-width="1.5"></path><path d="M797.73 658.92L949.47 545.56" stroke="hsl(0, 0%, 0%)" stroke-width="1.5"></path><path d="M797.73 658.92L647.5 529.16" stroke="hsl(0, 0%, 0%)" stroke-width="1.5"></path><path d="M797.73 658.92L545.69 686.6" stroke="hsl(0, 0%, 0%)" stroke-width="1.5"></path><path d="M967.86 410.99L967.86 410.99" stroke="hsl(0, 0%, 0%)" stroke-width="1.5"></path><path d="M967.86 410.99L949.47 545.56" stroke="hsl(0, 0%, 0%)" stroke-width="1.5"></path><path d="M967.86 410.99L1112.62 373.29" stroke="hsl(0, 0%, 0%)" stroke-width="1.5"></path><path d="M967.86 410.99L807.59 381.93" stroke="hsl(0, 0%, 0%)" stroke-width="1.5"></path><path d="M967.86 410.99L814.6 494.76" stroke="hsl(0, 0%, 0%)" stroke-width="1.5"></path><path d="M974.86 667.24L974.86 667.24" stroke="hsl(0, 0%, 0%)" stroke-width="1.5"></path><path d="M974.86 667.24L1087.79 678.07" stroke="hsl(0, 0%, 0%)" stroke-width="1.5"></path><path d="M974.86 667.24L949.47 545.56" stroke="hsl(0, 0%, 0%)" stroke-width="1.5"></path><path d="M974.86 667.24L1141.54 531.14" stroke="hsl(0, 0%, 0%)" stroke-width="1.5"></path><path d="M1300.01 91.23L1300.01 91.23" stroke="hsl(0, 0%, 0%)" stroke-width="1.5"></path><path d="M1300.01 91.23L1393.19 63.65" stroke="hsl(0, 0%, 0%)" stroke-width="1.5"></path><path d="M1300.01 91.23L1303.26 228.52" stroke="hsl(0, 0%, 0%)" stroke-width="1.5"></path><path d="M1300.01 91.23L1263.84 -46.1" stroke="hsl(0, 0%, 0%)" stroke-width="1.5"></path><path d="M1397.69 385.59L1397.69 385.59" stroke="hsl(0, 0%, 0%)" stroke-width="1.5"></path><path d="M1397.69 385.59L1537.67 358.3" stroke="hsl(0, 0%, 0%)" stroke-width="1.5"></path><path d="M1397.69 385.59L1393.74 232.03" stroke="hsl(0, 0%, 0%)" stroke-width="1.5"></path><path d="M1397.69 385.59L1287.77 501.07" stroke="hsl(0, 0%, 0%)" stroke-width="1.5"></path><path d="M1537.67 358.3L1537.67 358.3" stroke="hsl(0, 0%, 0%)" stroke-width="1.5"></path><path d="M1537.67 358.3L1547.35 238.87" stroke="hsl(0, 0%, 0%)" stroke-width="1.5"></path><path d="M1580.08 648.58L1580.08 648.58" stroke="hsl(0, 0%, 0%)" stroke-width="1.5"></path><path d="M1580.08 648.58L1405.69 670.49" stroke="hsl(0, 0%, 0%)" stroke-width="1.5"></path><path d="M1580.08 648.58L1537.67 358.3" stroke="hsl(0, 0%, 0%)" stroke-width="1.5"></path><path d="M1580.08 648.58L1397.69 385.59" stroke="hsl(0, 0%, 0%)" stroke-width="1.5"></path><path d="M-42.99 515.41L-42.99 515.41" stroke="hsl(0, 0%, 0%)" stroke-width="1.5"></path><path d="M-42.99 515.41L42.09 551" stroke="hsl(0, 0%, 0%)" stroke-width="1.5"></path><path d="M-42.99 515.41L-75 686.78" stroke="hsl(0, 0%, 0%)" stroke-width="1.5"></path><path d="M-42.99 515.41L37.51 708.04" stroke="hsl(0, 0%, 0%)" stroke-width="1.5"></path><path d="M-42.99 515.41L207.34 649.31" stroke="hsl(0, 0%, 0%)" stroke-width="1.5"></path><path d="M-42.99 515.41L248.51 554.73" stroke="hsl(0, 0%, 0%)" stroke-width="1.5"></path><path d="M-42.99 515.41L355.68 510.32" stroke="hsl(0, 0%, 0%)" stroke-width="1.5"></path><path d="M-75 686.78L-75 686.78" stroke="hsl(0, 0%, 0%)" stroke-width="1.5"></path><path d="M-75 686.78L37.51 708.04" stroke="hsl(0, 0%, 0%)" stroke-width="1.5"></path><path d="M-75 686.78L42.09 551" stroke="hsl(0, 0%, 0%)" stroke-width="1.5"></path><path d="M-75 686.78L207.34 649.31" stroke="hsl(0, 0%, 0%)" stroke-width="1.5"></path><path d="M-75 686.78L248.51 554.73" stroke="hsl(0, 0%, 0%)" stroke-width="1.5"></path><path d="M42.09 551L42.09 551" stroke="hsl(0, 0%, 0%)" stroke-width="1.5"></path><path d="M42.09 551L37.51 708.04" stroke="hsl(0, 0%, 0%)" stroke-width="1.5"></path><path d="M37.51 708.04L37.51 708.04" stroke="hsl(0, 0%, 0%)" stroke-width="1.5"></path><path d="M37.51 708.04L207.34 649.31" stroke="hsl(0, 0%, 0%)" stroke-width="1.5"></path><path d="M248.51 554.73L248.51 554.73" stroke="hsl(0, 0%, 0%)" stroke-width="1.5"></path><path d="M248.51 554.73L207.34 649.31" stroke="hsl(0, 0%, 0%)" stroke-width="1.5"></path><path d="M248.51 554.73L386.17 681.69" stroke="hsl(0, 0%, 0%)" stroke-width="1.5"></path><path d="M248.51 554.73L42.09 551" stroke="hsl(0, 0%, 0%)" stroke-width="1.5"></path><path d="M248.51 554.73L499.35 517.93" stroke="hsl(0, 0%, 0%)" stroke-width="1.5"></path><path d="M207.34 649.31L207.34 649.31" stroke="hsl(0, 0%, 0%)" stroke-width="1.5"></path><path d="M207.34 649.31L42.09 551" stroke="hsl(0, 0%, 0%)" stroke-width="1.5"></path><path d="M499.35 517.93L499.35 517.93" stroke="hsl(0, 0%, 0%)" stroke-width="1.5"></path><path d="M499.35 517.93L647.5 529.16" stroke="hsl(0, 0%, 0%)" stroke-width="1.5"></path><path d="M499.35 517.93L545.69 686.6" stroke="hsl(0, 0%, 0%)" stroke-width="1.5"></path><path d="M499.35 517.93L386.17 681.69" stroke="hsl(0, 0%, 0%)" stroke-width="1.5"></path><path d="M499.35 517.93L640.38 682.1" stroke="hsl(0, 0%, 0%)" stroke-width="1.5"></path><path d="M499.35 517.93L685.37 391.26" stroke="hsl(0, 0%, 0%)" stroke-width="1.5"></path><path d="M545.69 686.6L545.69 686.6" stroke="hsl(0, 0%, 0%)" stroke-width="1.5"></path><path d="M685.37 391.26L685.37 391.26" stroke="hsl(0, 0%, 0%)" stroke-width="1.5"></path><path d="M685.37 391.26L807.59 381.93" stroke="hsl(0, 0%, 0%)" stroke-width="1.5"></path><path d="M685.37 391.26L647.5 529.16" stroke="hsl(0, 0%, 0%)" stroke-width="1.5"></path><path d="M685.37 391.26L814.6 494.76" stroke="hsl(0, 0%, 0%)" stroke-width="1.5"></path><path d="M685.37 391.26L967.86 410.99" stroke="hsl(0, 0%, 0%)" stroke-width="1.5"></path><path d="M685.37 391.26L797.73 658.92" stroke="hsl(0, 0%, 0%)" stroke-width="1.5"></path><path d="M647.5 529.16L647.5 529.16" stroke="hsl(0, 0%, 0%)" stroke-width="1.5"></path><path d="M807.59 381.93L807.59 381.93" stroke="hsl(0, 0%, 0%)" stroke-width="1.5"></path><path d="M807.59 381.93L814.6 494.76" stroke="hsl(0, 0%, 0%)" stroke-width="1.5"></path><path d="M814.6 494.76L814.6 494.76" stroke="hsl(0, 0%, 0%)" stroke-width="1.5"></path><path d="M814.6 494.76L949.47 545.56" stroke="hsl(0, 0%, 0%)" stroke-width="1.5"></path><path d="M814.6 494.76L647.5 529.16" stroke="hsl(0, 0%, 0%)" stroke-width="1.5"></path><path d="M949.47 545.56L949.47 545.56" stroke="hsl(0, 0%, 0%)" stroke-width="1.5"></path><path d="M949.47 545.56L1087.79 678.07" stroke="hsl(0, 0%, 0%)" stroke-width="1.5"></path><path d="M1105.81 239.28L1105.81 239.28" stroke="hsl(0, 0%, 0%)" stroke-width="1.5"></path><path d="M1105.81 239.28L1112.62 373.29" stroke="hsl(0, 0%, 0%)" stroke-width="1.5"></path><path d="M1105.81 239.28L1237.97 380.05" stroke="hsl(0, 0%, 0%)" stroke-width="1.5"></path><path d="M1105.81 239.28L1303.26 228.52" stroke="hsl(0, 0%, 0%)" stroke-width="1.5"></path><path d="M1112.62 373.29L1112.62 373.29" stroke="hsl(0, 0%, 0%)" stroke-width="1.5"></path><path d="M1112.62 373.29L1237.97 380.05" stroke="hsl(0, 0%, 0%)" stroke-width="1.5"></path><path d="M1141.54 531.14L1141.54 531.14" stroke="hsl(0, 0%, 0%)" stroke-width="1.5"></path><path d="M1141.54 531.14L1287.77 501.07" stroke="hsl(0, 0%, 0%)" stroke-width="1.5"></path><path d="M1141.54 531.14L1087.79 678.07" stroke="hsl(0, 0%, 0%)" stroke-width="1.5"></path><path d="M1087.79 678.07L1087.79 678.07" stroke="hsl(0, 0%, 0%)" stroke-width="1.5"></path><path d="M1263.84 -46.1L1263.84 -46.1" stroke="hsl(0, 0%, 0%)" stroke-width="1.5"></path><path d="M1263.84 -46.1L1393.19 63.65" stroke="hsl(0, 0%, 0%)" stroke-width="1.5"></path><path d="M1263.84 -46.1L1303.26 228.52" stroke="hsl(0, 0%, 0%)" stroke-width="1.5"></path><path d="M1263.84 -46.1L1393.74 232.03" stroke="hsl(0, 0%, 0%)" stroke-width="1.5"></path><path d="M1263.84 -46.1L1574.56 -106.99" stroke="hsl(0, 0%, 0%)" stroke-width="1.5"></path><path d="M1263.84 -46.1L1567.6 71.81" stroke="hsl(0, 0%, 0%)" stroke-width="1.5"></path><path d="M1303.26 228.52L1303.26 228.52" stroke="hsl(0, 0%, 0%)" stroke-width="1.5"></path><path d="M1303.26 228.52L1393.74 232.03" stroke="hsl(0, 0%, 0%)" stroke-width="1.5"></path><path d="M1303.26 228.52L1237.97 380.05" stroke="hsl(0, 0%, 0%)" stroke-width="1.5"></path><path d="M1303.26 228.52L1397.69 385.59" stroke="hsl(0, 0%, 0%)" stroke-width="1.5"></path><path d="M1303.26 228.52L1393.19 63.65" stroke="hsl(0, 0%, 0%)" stroke-width="1.5"></path><path d="M1237.97 380.05L1237.97 380.05" stroke="hsl(0, 0%, 0%)" stroke-width="1.5"></path><path d="M1237.97 380.05L1287.77 501.07" stroke="hsl(0, 0%, 0%)" stroke-width="1.5"></path><path d="M1287.77 501.07L1287.77 501.07" stroke="hsl(0, 0%, 0%)" stroke-width="1.5"></path><path d="M1287.77 501.07L1262.77 693.25" stroke="hsl(0, 0%, 0%)" stroke-width="1.5"></path><path d="M1262.77 693.25L1262.77 693.25" stroke="hsl(0, 0%, 0%)" stroke-width="1.5"></path><path d="M1262.77 693.25L1405.69 670.49" stroke="hsl(0, 0%, 0%)" stroke-width="1.5"></path><path d="M1262.77 693.25L1087.79 678.07" stroke="hsl(0, 0%, 0%)" stroke-width="1.5"></path><path d="M1262.77 693.25L1141.54 531.14" stroke="hsl(0, 0%, 0%)" stroke-width="1.5"></path><path d="M1262.77 693.25L974.86 667.24" stroke="hsl(0, 0%, 0%)" stroke-width="1.5"></path><path d="M1262.77 693.25L1237.97 380.05" stroke="hsl(0, 0%, 0%)" stroke-width="1.5"></path><path d="M1393.19 63.65L1393.19 63.65" stroke="hsl(0, 0%, 0%)" stroke-width="1.5"></path><path d="M1393.19 63.65L1393.74 232.03" stroke="hsl(0, 0%, 0%)" stroke-width="1.5"></path><path d="M1393.19 63.65L1567.6 71.81" stroke="hsl(0, 0%, 0%)" stroke-width="1.5"></path><path d="M1393.74 232.03L1393.74 232.03" stroke="hsl(0, 0%, 0%)" stroke-width="1.5"></path><path d="M1393.74 232.03L1547.35 238.87" stroke="hsl(0, 0%, 0%)" stroke-width="1.5"></path><path d="M1393.74 232.03L1300.01 91.23" stroke="hsl(0, 0%, 0%)" stroke-width="1.5"></path><path d="M1405.69 670.49L1405.69 670.49" stroke="hsl(0, 0%, 0%)" stroke-width="1.5"></path><path d="M1405.69 670.49L1287.77 501.07" stroke="hsl(0, 0%, 0%)" stroke-width="1.5"></path><path d="M1405.69 670.49L1397.69 385.59" stroke="hsl(0, 0%, 0%)" stroke-width="1.5"></path><path d="M1574.56 -106.99L1574.56 -106.99" stroke="hsl(0, 0%, 0%)" stroke-width="1.5"></path><path d="M1574.56 -106.99L1567.6 71.81" stroke="hsl(0, 0%, 0%)" stroke-width="1.5"></path><path d="M1574.56 -106.99L1393.19 63.65" stroke="hsl(0, 0%, 0%)" stroke-width="1.5"></path><path d="M1574.56 -106.99L1300.01 91.23" stroke="hsl(0, 0%, 0%)" stroke-width="1.5"></path><path d="M1567.6 71.81L1567.6 71.81" stroke="hsl(0, 0%, 0%)" stroke-width="1.5"></path><path d="M1567.6 71.81L1547.35 238.87" stroke="hsl(0, 0%, 0%)" stroke-width="1.5"></path><path d="M1567.6 71.81L1393.74 232.03" stroke="hsl(0, 0%, 0%)" stroke-width="1.5"></path><path d="M1567.6 71.81L1300.01 91.23" stroke="hsl(0, 0%, 0%)" stroke-width="1.5"></path><path d="M1567.6 71.81L1537.67 358.3" stroke="hsl(0, 0%, 0%)" stroke-width="1.5"></path><path d="M1547.35 238.87L1547.35 238.87" stroke="hsl(0, 0%, 0%)" stroke-width="1.5"></path><path d="M1547.35 238.87L1397.69 385.59" stroke="hsl(0, 0%, 0%)" stroke-width="1.5"></path><path d="M1547.35 238.87L1393.19 63.65" stroke="hsl(0, 0%, 0%)" stroke-width="1.5"></path><circle r="25" cx="355.68" cy="510.32" fill="url(&quot;#SvgjsRadialGradient3689&quot;)"></circle><circle r="25" cx="386.17" cy="681.69" fill="url(&quot;#SvgjsRadialGradient3689&quot;)"></circle><circle r="25" cx="640.38" cy="682.1" fill="url(&quot;#SvgjsRadialGradient3689&quot;)"></circle><circle r="25" cx="797.73" cy="658.92" fill="url(&quot;#SvgjsRadialGradient3689&quot;)"></circle><circle r="25" cx="967.86" cy="410.99" fill="url(&quot;#SvgjsRadialGradient3689&quot;)"></circle><circle r="25" cx="974.86" cy="667.24" fill="url(&quot;#SvgjsRadialGradient3689&quot;)"></circle><circle r="25" cx="1300.01" cy="91.23" fill="url(&quot;#SvgjsRadialGradient3689&quot;)"></circle><circle r="25" cx="1397.69" cy="385.59" fill="url(&quot;#SvgjsRadialGradient3689&quot;)"></circle><circle r="25" cx="1537.67" cy="358.3" fill="url(&quot;#SvgjsRadialGradient3689&quot;)"></circle><circle r="25" cx="1580.08" cy="648.58" fill="url(&quot;#SvgjsRadialGradient3689&quot;)"></circle><circle r="5" cx="-42.99" cy="515.41" fill="#808080"></circle><circle r="5" cx="-75" cy="686.78" fill="#808080"></circle><circle r="5" cx="42.09" cy="551" fill="#808080"></circle><circle r="5" cx="37.51" cy="708.04" fill="#808080"></circle><circle r="5" cx="248.51" cy="554.73" fill="#808080"></circle><circle r="5" cx="207.34" cy="649.31" fill="#808080"></circle><circle r="5" cx="499.35" cy="517.93" fill="#808080"></circle><circle r="5" cx="545.69" cy="686.6" fill="#808080"></circle><circle r="5" cx="685.37" cy="391.26" fill="#808080"></circle><circle r="5" cx="647.5" cy="529.16" fill="#808080"></circle><circle r="5" cx="807.59" cy="381.93" fill="#808080"></circle><circle r="5" cx="814.6" cy="494.76" fill="#808080"></circle><circle r="5" cx="949.47" cy="545.56" fill="#808080"></circle><circle r="5" cx="1105.81" cy="239.28" fill="#808080"></circle><circle r="5" cx="1112.62" cy="373.29" fill="#808080"></circle><circle r="5" cx="1141.54" cy="531.14" fill="#808080"></circle><circle r="5" cx="1087.79" cy="678.07" fill="#808080"></circle><circle r="5" cx="1263.84" cy="-46.1" fill="#808080"></circle><circle r="5" cx="1303.26" cy="228.52" fill="#808080"></circle><circle r="5" cx="1237.97" cy="380.05" fill="#808080"></circle><circle r="5" cx="1287.77" cy="501.07" fill="#808080"></circle><circle r="5" cx="1262.77" cy="693.25" fill="#808080"></circle><circle r="5" cx="1393.19" cy="63.65" fill="#808080"></circle><circle r="5" cx="1393.74" cy="232.03" fill="#808080"></circle><circle r="5" cx="1405.69" cy="670.49" fill="#808080"></circle><circle r="5" cx="1574.56" cy="-106.99" fill="#808080"></circle><circle r="5" cx="1567.6" cy="71.81" fill="#808080"></circle><circle r="5" cx="1547.35" cy="238.87" fill="#808080"></circle></g><defs><mask id="SvgjsMask3687"><rect width="1440" height="560" fill="#ffffff"></rect></mask><linearGradient x1="15.28%" y1="-39.29%" x2="84.72%" y2="139.29%" gradientUnits="userSpaceOnUse" id="SvgjsLinearGradient3688"><stop stop-color="rgba(117, 117, 117, 1)" offset="0"></stop><stop stop-color="rgba(117, 117, 117, 1)" offset="0.82"></stop></linearGradient><radialGradient id="SvgjsRadialGradient3689"><stop stop-color="#ffffff" offset="0.1"></stop><stop stop-color="rgba(0, 0, 0, 1)" offset="0.2"></stop><stop stop-color="rgba(0, 0, 0, 0)" offset="1"></stop></radialGradient></defs></svg>